<?xml version="1.0" standalone="no"?>
<!DOCTYPE svg PUBLIC "-//W3C//DTD SVG 20010904//EN"
 "http://www.w3.org/TR/2001/REC-SVG-20010904/DTD/svg10.dtd">
<svg version="1.0" xmlns="http://www.w3.org/2000/svg"
 width="300.000000pt" height="300.000000pt" viewBox="0 0 300.000000 300.000000"
 preserveAspectRatio="xMidYMid meet">
<metadata>
Created by potrace 1.11, written by Peter Selinger 2001-2013
</metadata>
<g transform="translate(0.000000,300.000000) scale(0.100000,-0.100000)"
fill="#000000" stroke="none">
<path d="M27 2495 c-21 -10 -22 -16 -21 -150 1 -139 10 -337 18 -385 3 -14 7
-56 11 -93 3 -37 8 -76 10 -85 2 -10 7 -45 11 -77 4 -33 9 -62 9 -65 1 -3 5
-27 10 -55 5 -27 10 -52 10 -55 1 -3 7 -32 14 -65 47 -221 134 -458 220 -600
145 -241 322 -399 520 -465 56 -19 87 -26 196 -46 40 -7 278 -7 335 1 288 39
501 158 675 377 l30 37 100 6 c108 5 184 13 228 21 16 3 38 7 50 9 12 1 51 10
87 20 261 68 409 242 451 525 12 87 7 247 -11 325 -6 28 -13 59 -16 70 -2 11
-21 57 -43 102 -50 103 -137 193 -231 240 -67 33 -197 73 -237 73 l-23 0 4
155 c3 116 0 159 -9 172 -13 17 -75 18 -1195 19 -843 0 -1187 -3 -1203 -11z
m2483 -624 c80 -31 134 -81 174 -164 39 -78 44 -99 52 -197 10 -114 -35 -253
-108 -336 -66 -75 -151 -108 -311 -120 -48 -3 -87 -4 -87 -2 0 2 14 43 30 92
27 79 74 247 85 306 22 115 55 330 60 395 2 22 3 41 4 43 3 8 58 -1 101 -17z"/>
</g>
</svg>
